<svg id="Layer_1" data-name="Layer 1" xmlns="http://www.w3.org/2000/svg" viewBox="0 0 1210 328.04"><defs><style>.cls-1{fill:#004a7f;}</style></defs><path class="cls-1" d="M18.51,43.71,62.07,154.37,105.44,43.71h17.61L69.3,175.31H54.84L.9,43.71Z" transform="translate(-0.9 -40)"/><path class="cls-1" d="M153.26,177.16a34.93,34.93,0,0,1-12.79-2.31,31.81,31.81,0,0,1-10.28-6.4,30,30,0,0,1-6.86-9.54,28.37,28.37,0,0,1-2.5-12,25,25,0,0,1,3-12.14,27.66,27.66,0,0,1,8.44-9.36,43.51,43.51,0,0,1,13-6.12,57.6,57.6,0,0,1,16.41-2.22,79.81,79.81,0,0,1,14.22,1.34,64.48,64.48,0,0,1,12.79,3.52v-7.79q0-11.85-6.68-18.63t-18.9-6.76q-14.66,0-30.77,11.31L126.9,89.49q18.72-12.6,37.63-12.6,19.1,0,29.75,10.19t10.66,28.73v39.48c0,3.83,1.73,5.8,5.19,5.93v14.09c-1.73.25-3.15.43-4.27.56a34.58,34.58,0,0,1-3.52.18,10.39,10.39,0,0,1-7.69-2.87,11.85,11.85,0,0,1-3.43-7l-.37-6.86a41.77,41.77,0,0,1-16.4,13.25A50.34,50.34,0,0,1,153.26,177.16Zm4.27-12.23a40.55,40.55,0,0,0,16.22-3.24,26.83,26.83,0,0,0,11.4-8.62c2.34-2.35,3.52-4.76,3.52-7.23V131.57A67.14,67.14,0,0,0,164,126.93q-12.22,0-19.92,5.19t-7.69,13.53a18.39,18.39,0,0,0,1.57,7.6,18,18,0,0,0,4.45,6.12,21.2,21.2,0,0,0,6.77,4.08A23.25,23.25,0,0,0,157.53,164.93Z" transform="translate(-0.9 -40)"/><path class="cls-1" d="M231.48,40h16.31V150.29q0,5.37,2.88,8.43t8.06,3.06a21.19,21.19,0,0,0,4.82-.65,39.25,39.25,0,0,0,5.19-1.57l2.59,13.16a54.76,54.76,0,0,1-9.64,2.78,50.69,50.69,0,0,1-9.82,1.11q-9.45,0-14.92-5.38t-5.47-15Z" transform="translate(-0.9 -40)"/><path class="cls-1" d="M284.49,40H300.8V150.29q0,5.37,2.88,8.43t8.06,3.06a21.19,21.19,0,0,0,4.82-.65,39.25,39.25,0,0,0,5.19-1.57l2.59,13.16a54.66,54.66,0,0,1-9.63,2.78,50.79,50.79,0,0,1-9.83,1.11q-9.45,0-14.92-5.38t-5.47-15Z" transform="translate(-0.9 -40)"/><path class="cls-1" d="M380,177.16a49.26,49.26,0,0,1-20-4,47.54,47.54,0,0,1-15.57-10.84,49.45,49.45,0,0,1-10.1-16,53.5,53.5,0,0,1,0-38.64,48.86,48.86,0,0,1,10.2-16,48.27,48.27,0,0,1,15.66-10.84,49.43,49.43,0,0,1,20-4,47.09,47.09,0,0,1,44.95,30.67,52,52,0,0,1,3.42,18.63c0,1.36,0,2.6-.09,3.71a18.81,18.81,0,0,1-.28,2.59H347.9a37.57,37.57,0,0,0,3.34,13.16,33.42,33.42,0,0,0,17.33,16.87,30,30,0,0,0,12,2.41,32.11,32.11,0,0,0,8.71-1.2,38.58,38.58,0,0,0,8-3.25,27.65,27.65,0,0,0,6.58-5,20.75,20.75,0,0,0,4.36-6.68l14.08,3.9a35.38,35.38,0,0,1-6.58,9.82,43.38,43.38,0,0,1-9.64,7.69,49.07,49.07,0,0,1-12.14,5.1A52.1,52.1,0,0,1,380,177.16Zm33.18-56.72a34.82,34.82,0,0,0-3.43-12.69,34,34,0,0,0-7.23-9.92,33.14,33.14,0,0,0-34.57-6.39,31.41,31.41,0,0,0-10.1,6.48,32.9,32.9,0,0,0-7,9.92,36.26,36.26,0,0,0-3.25,12.6Z" transform="translate(-0.9 -40)"/><path class="cls-1" d="M448.35,201.63c1.6.25,3.21.43,4.81.56s2.85.18,3.71.18a7.87,7.87,0,0,0,4-1,11.11,11.11,0,0,0,3.52-4,70.46,70.46,0,0,0,4-8.25q2.24-5.28,5.56-13.81L433,78.55h16.87l33,82.12,30-82.12h15.57L481.34,200.71a28.24,28.24,0,0,1-8.62,11.39q-6,4.92-16.59,4.92c-1.15,0-2.29-.07-3.43-.19a42.47,42.47,0,0,1-4.35-.74Z" transform="translate(-0.9 -40)"/><path class="cls-1" d="M642.78,176.24a56,56,0,0,1-25.3-5.66,62.32,62.32,0,0,1-19.55-15,68.18,68.18,0,0,1-12.61-21.41,70.59,70.59,0,0,1-4.42-24.66,68.38,68.38,0,0,1,4.7-25.21A69.57,69.57,0,0,1,598.67,63a62.89,62.89,0,0,1,19.74-14.75,56.34,56.34,0,0,1,24.75-5.47,54.18,54.18,0,0,1,25.2,5.84,64.62,64.62,0,0,1,19.47,15.29,71,71,0,0,1,17.07,45.78,68.38,68.38,0,0,1-4.73,25.21,69.35,69.35,0,0,1-13,21.23,62.42,62.42,0,0,1-19.65,14.64A56.33,56.33,0,0,1,642.78,176.24Zm-45-66.73A58.35,58.35,0,0,0,601,128.88a53.62,53.62,0,0,0,9.17,16.59A44.29,44.29,0,0,0,624.43,157,40.16,40.16,0,0,0,643,161.26a38.9,38.9,0,0,0,18.93-4.58,46.18,46.18,0,0,0,14.18-11.86A53,53,0,0,0,685,128.23a59.15,59.15,0,0,0-.18-38.09,51.72,51.72,0,0,0-9.27-16.5,46.69,46.69,0,0,0-14.27-11.4,41.81,41.81,0,0,0-37.17.19A45.6,45.6,0,0,0,609.9,74.11a53.31,53.31,0,0,0-9,16.49,58.26,58.26,0,0,0-3.16,18.91Z" transform="translate(-0.9 -40)"/><path class="cls-1" d="M829.07,141.39a31.37,31.37,0,0,1-3.06,13.9A32.28,32.28,0,0,1,817.67,166a38,38,0,0,1-12.24,6.86,45.07,45.07,0,0,1-14.92,2.41H728.05V43.71h65.43a26.1,26.1,0,0,1,12.42,3,31,31,0,0,1,9.45,7.7,35.41,35.41,0,0,1,6,10.75,36.12,36.12,0,0,1,2.13,12.14,35,35,0,0,1-4.91,18.16,30.13,30.13,0,0,1-14,12.42,33.1,33.1,0,0,1,17.89,12.33A35,35,0,0,1,829.07,141.39ZM744.73,58.16V102.1h41.89a18.68,18.68,0,0,0,8.15-1.77,20.12,20.12,0,0,0,6.4-4.72A23.11,23.11,0,0,0,807,80.22a25.6,25.6,0,0,0-1.48-8.71,23.31,23.31,0,0,0-4-7,17.55,17.55,0,0,0-6.12-4.64,18.24,18.24,0,0,0-7.69-1.67Zm67.47,80.27a24.15,24.15,0,0,0-1.58-8.62,24.82,24.82,0,0,0-4.26-7.33,20.12,20.12,0,0,0-6.4-5,18,18,0,0,0-8.15-1.85H744.73v45.22h45.78A19.63,19.63,0,0,0,799,159a23.49,23.49,0,0,0,6.86-4.91A22.66,22.66,0,0,0,812.2,138.43Z" transform="translate(-0.9 -40)"/><path class="cls-1" d="M945.28,157.52q-17.41,18.72-40,18.72a52.7,52.7,0,0,1-24.38-5.75,64.29,64.29,0,0,1-19.37-15.1A72.67,72.67,0,0,1,848.62,134a67.36,67.36,0,0,1-4.72-24.86,69.83,69.83,0,0,1,17.43-46.43,60.32,60.32,0,0,1,19.45-14.55,56.24,56.24,0,0,1,24.47-5.38q19.08,0,31.41,8a52.87,52.87,0,0,1,18.82,20.76l-12.79,8.9q-5.94-11.49-15.76-17a44,44,0,0,0-22-5.57,38,38,0,0,0-18.17,4.36,45,45,0,0,0-13.9,11.49,53,53,0,0,0-8.9,16.5,60.15,60.15,0,0,0-3.15,19.37,56,56,0,0,0,3.52,19.92A54.64,54.64,0,0,0,874,146a44.85,44.85,0,0,0,14.46,11.22,40.76,40.76,0,0,0,18.16,4.07q21.51,0,38.74-20.76V122.3H916.9V109.69h42.45v65.62H945.28Z" transform="translate(-0.9 -40)"/><path class="cls-1" d="M983.28,43.71l39.85,68.58,40.23-68.58h18.16l-50,83.59v48h-16.68V126.93L964.9,43.71Z" transform="translate(-0.9 -40)"/><path class="cls-1" d="M1116.37,74.85V175.31h-16.68V43.71h13l81.56,102.5V43.89h16.65V175.31h-14.09Z" transform="translate(-0.9 -40)"/><path class="cls-1" d="M231.88,366.13V231h57.86a36.77,36.77,0,0,1,16.47,3.71,41.61,41.61,0,0,1,12.94,9.9,47.25,47.25,0,0,1,8.47,13.9,42.4,42.4,0,0,1,3.05,15.7,46.55,46.55,0,0,1-2,13.61,42.25,42.25,0,0,1-5.71,11.9,38.42,38.42,0,0,1-8.95,9.13,34.82,34.82,0,0,1-11.7,5.52L335,366.13H315.63L284.79,317.6H249v48.53ZM249,302.37h40.92a20.16,20.16,0,0,0,9.62-2.28,23,23,0,0,0,7.32-6.19,30,30,0,0,0,4.76-9,33.57,33.57,0,0,0,1.72-10.66,28.93,28.93,0,0,0-2-10.75A31.66,31.66,0,0,0,306,254.5a24.18,24.18,0,0,0-7.81-6.09,21.14,21.14,0,0,0-9.42-2.19H249Z" transform="translate(-0.9 -40)"/><path class="cls-1" d="M399.57,368A50.76,50.76,0,0,1,379,364a48.55,48.55,0,0,1-16-11.14,50.64,50.64,0,0,1-10.37-16.46,53.69,53.69,0,0,1-3.71-19.89,53,53,0,0,1,3.71-19.8,49.51,49.51,0,0,1,26.55-27.5,50.59,50.59,0,0,1,20.56-4.1,49,49,0,0,1,20.46,4.19,48.47,48.47,0,0,1,15.7,11.14,49.14,49.14,0,0,1,10,16.17,53.45,53.45,0,0,1,3.52,19.13c0,1.4,0,2.67-.1,3.81a21.1,21.1,0,0,1-.28,2.67H366.64a38.4,38.4,0,0,0,3.43,13.51,34.65,34.65,0,0,0,7.42,10.47A34.22,34.22,0,0,0,387.86,353a31,31,0,0,0,12.28,2.47,32.91,32.91,0,0,0,8.94-1.23,39.48,39.48,0,0,0,8.19-3.33,28.56,28.56,0,0,0,6.76-5.14,21.12,21.12,0,0,0,4.47-6.85l14.46,4A36.55,36.55,0,0,1,436.21,353a44.87,44.87,0,0,1-9.9,7.9,50.73,50.73,0,0,1-12.47,5.23A53,53,0,0,1,399.57,368Zm34.07-58.25a36,36,0,0,0-3.52-13,35,35,0,0,0-7.43-10.18A34.07,34.07,0,0,0,387.2,280a32.26,32.26,0,0,0-10.38,6.67,33.71,33.71,0,0,0-7.23,10.18,37.4,37.4,0,0,0-3.33,12.94Z" transform="translate(-0.9 -40)"/><path class="cls-1" d="M473.42,366.13V291.52H459.9V278.39h13.52V264.68q0-18.45,8.18-28.93t22.27-10.47a42.32,42.32,0,0,1,11.61,1.62,39.87,39.87,0,0,1,10.28,4.47l-4.19,12.38A21.67,21.67,0,0,0,515,240.7a27.49,27.49,0,0,0-7.71-1.14q-8.39,0-12.76,6.28t-4.37,18.27v14.28h26.45v13.13H490.17v74.61Z" transform="translate(-0.9 -40)"/><path class="cls-1" d="M579.81,368A50.71,50.71,0,0,1,559.26,364a48.55,48.55,0,0,1-16-11.14,50.64,50.64,0,0,1-10.37-16.46,53.7,53.7,0,0,1-3.72-19.89,53,53,0,0,1,3.72-19.8,49.79,49.79,0,0,1,47.1-31.6,48.33,48.33,0,0,1,46.16,31.5,53.24,53.24,0,0,1,3.52,19.13q0,2.1-.09,3.81a20.78,20.78,0,0,1-.29,2.67H546.89a38.61,38.61,0,0,0,3.42,13.51,34.86,34.86,0,0,0,7.43,10.47A34.22,34.22,0,0,0,568.11,353a31,31,0,0,0,12.28,2.47,32.91,32.91,0,0,0,8.94-1.23,39.48,39.48,0,0,0,8.19-3.33,28.7,28.7,0,0,0,6.75-5.14,21,21,0,0,0,4.48-6.85l14.46,4A36.55,36.55,0,0,1,616.46,353a44.87,44.87,0,0,1-9.9,7.9,50.89,50.89,0,0,1-12.47,5.23A53.09,53.09,0,0,1,579.81,368Zm34.08-58.25a36,36,0,0,0-3.53-13,34.82,34.82,0,0,0-7.42-10.18,34.09,34.09,0,0,0-35.5-6.57,32.33,32.33,0,0,0-10.37,6.67,33.54,33.54,0,0,0-7.23,10.18,37.63,37.63,0,0,0-3.34,12.94Z" transform="translate(-0.9 -40)"/><path class="cls-1" d="M700.49,281.43a43.13,43.13,0,0,0-22.18,6.47,33.06,33.06,0,0,0-13.6,16.94v61.29H648V266.78h15.6v23a50.7,50.7,0,0,1,13.52-17Q685.45,266,695,266h3.24a11.57,11.57,0,0,1,2.28.2Z" transform="translate(-0.9 -40)"/><path class="cls-1" d="M769.39,281.43a43.09,43.09,0,0,0-22.17,6.47,33,33,0,0,0-13.61,16.94v61.29H716.86V266.78h15.6v23a50.7,50.7,0,0,1,13.52-17q8.37-6.75,17.89-6.76h3.24a11.57,11.57,0,0,1,2.28.2Z" transform="translate(-0.9 -40)"/><path class="cls-1" d="M810.89,368a38.56,38.56,0,0,1-13.71-2.38,34.42,34.42,0,0,1-10.85-6.47,29.28,29.28,0,0,1-7.13-9.71,28.15,28.15,0,0,1-2.57-11.9,27.28,27.28,0,0,1,3-12.85,28.74,28.74,0,0,1,8.66-9.89,41.73,41.73,0,0,1,13.33-6.28,61.39,61.39,0,0,1,16.84-2.19,82.74,82.74,0,0,1,14.66,1.33,67.21,67.21,0,0,1,13.13,3.62v-8q0-12.18-6.85-19.13T820,277.25q-15,0-31.59,11.61L782.91,278a82.92,82.92,0,0,1,19.22-9.71,61.06,61.06,0,0,1,19.8-3.24q19,0,30.07,10.47T863,305v40.55q0,5.9,5.33,6.09v14.46c-1.27.26-2.47.45-3.62.58a31.1,31.1,0,0,1-3.23.19,16.38,16.38,0,0,1-8.19-2.29q-4-2.28-4.37-7.8l-.38-7.05a42.62,42.62,0,0,1-7.81,8,47.27,47.27,0,0,1-9.33,5.71,50,50,0,0,1-10.18,3.43A48.65,48.65,0,0,1,810.89,368Zm4.19-12.57a37.7,37.7,0,0,0,15.6-3.42,34.8,34.8,0,0,0,12-8.38q3.62-4.19,3.62-7.8V321.21a71.31,71.31,0,0,0-12.47-3.52,68.6,68.6,0,0,0-12.65-1.23q-12.95,0-20.75,5.23a16.4,16.4,0,0,0-7.8,14.37,18.4,18.4,0,0,0,5.9,13.51,21.53,21.53,0,0,0,7,4.29A26.21,26.21,0,0,0,815.08,355.47Z" transform="translate(-0.9 -40)"/><path class="cls-1" d="M890.45,227.19H907.2V340.44c0,3.68,1,6.56,2.95,8.66s4.73,3.14,8.28,3.14a22,22,0,0,0,5-.67,40.68,40.68,0,0,0,5.33-1.61l2.66,13.51a54.55,54.55,0,0,1-9.9,2.85,51.52,51.52,0,0,1-10.08,1.15q-9.71,0-15.33-5.52t-5.61-15.42Z" transform="translate(-0.9 -40)"/><path class="cls-1" d="M978.58,368A77.22,77.22,0,0,1,955,364.33a58.14,58.14,0,0,1-20-10.76l7.23-11.23a70.19,70.19,0,0,0,17.51,10,51.3,51.3,0,0,0,18.47,3.34q10.84,0,17.22-4.29a13.72,13.72,0,0,0,6.38-12.08,10.84,10.84,0,0,0-1.72-6.19,14.43,14.43,0,0,0-5.13-4.47,42.43,42.43,0,0,0-8.76-3.43q-5.33-1.51-12.37-3.24-9-2.28-15.42-4.37a41.91,41.91,0,0,1-10.66-5,17.35,17.35,0,0,1-6.09-6.85,23,23,0,0,1-1.9-9.9,28.75,28.75,0,0,1,3-13.23,27.78,27.78,0,0,1,8.09-9.71,36.31,36.31,0,0,1,12.08-5.9,54,54,0,0,1,14.94-2,59.52,59.52,0,0,1,20.94,3.62,51.38,51.38,0,0,1,16.37,9.52l-7.61,10.08A43.18,43.18,0,0,0,993.42,280a47.84,47.84,0,0,0-16-2.75q-9.13,0-15.51,3.9t-6.38,12.46a11.91,11.91,0,0,0,1.24,5.71,10.77,10.77,0,0,0,4.09,4,32.62,32.62,0,0,0,7.33,3.05q4.47,1.33,10.76,2.85,9.88,2.29,17.22,4.67a49.07,49.07,0,0,1,12.18,5.61,21.76,21.76,0,0,1,7.24,7.61,22.15,22.15,0,0,1,2.38,10.66q0,13.91-10.66,22.08T978.58,368Z" transform="translate(-0.9 -40)"/></svg>